<?xml version="1.0" encoding="UTF-8" standalone="no"?>
<svg
   viewBox="0 0 640 512"
   version="1.1"
   id="svg1"
   sodipodi:docname="code.svg"
   inkscape:version="1.4.3 (0d15f75, 2025-12-25)"
   xmlns:inkscape="http://www.inkscape.org/namespaces/inkscape"
   xmlns:sodipodi="http://sodipodi.sourceforge.net/DTD/sodipodi-0.dtd"
   xmlns="http://www.w3.org/2000/svg"
   xmlns:svg="http://www.w3.org/2000/svg">
  <defs
     id="defs1" />
  <sodipodi:namedview
     id="namedview1"
     pagecolor="#ffffff"
     bordercolor="#000000"
     borderopacity="0.25"
     inkscape:showpageshadow="2"
     inkscape:pageopacity="0.0"
     inkscape:pagecheckerboard="0"
     inkscape:deskcolor="#d1d1d1"
     inkscape:zoom="0.96679688"
     inkscape:cx="320.12929"
     inkscape:cy="256"
     inkscape:window-width="1366"
     inkscape:window-height="697"
     inkscape:window-x="-8"
     inkscape:window-y="-8"
     inkscape:window-maximized="1"
     inkscape:current-layer="svg1" />
  <!--! Font Awesome Pro 6.1.1 by @fontawesome - https://fontawesome.com License - https://fontawesome.com/license (Commercial License) Copyright 2022 Fonticons, Inc. -->
  <path
     d="M414.8 40.79L286.8 488.8C281.9 505.8 264.2 515.6 247.2 510.8C230.2 505.9 220.4 488.2 225.2 471.2L353.2 23.21C358.1 6.216 375.8-3.624 392.8 1.232C409.8 6.087 419.6 23.8 414.8 40.79H414.8zM518.6 121.4L630.6 233.4C643.1 245.9 643.1 266.1 630.6 278.6L518.6 390.6C506.1 403.1 485.9 403.1 473.4 390.6C460.9 378.1 460.9 357.9 473.4 345.4L562.7 256L473.4 166.6C460.9 154.1 460.9 133.9 473.4 121.4C485.9 108.9 506.1 108.9 518.6 121.4V121.4zM166.6 166.6L77.25 256L166.6 345.4C179.1 357.9 179.1 378.1 166.6 390.6C154.1 403.1 133.9 403.1 121.4 390.6L9.372 278.6C-3.124 266.1-3.124 245.9 9.372 233.4L121.4 121.4C133.9 108.9 154.1 108.9 166.6 121.4C179.1 133.9 179.1 154.1 166.6 166.6V166.6z"
     id="path1" />
  <path
     style="fill:#cccccc;stroke-width:1.03434"
     d="m 136.4822,398.41494 c -2.58813,-0.7255 -6.31176,-2.32335 -8.27475,-3.55078 C 122.96881,391.58851 5.7212438,273.70363 3.4677977,269.44646 0.73785541,264.28911 0.73777255,247.71115 3.4676633,242.55354 4.5215447,240.56242 32.659435,211.60465 65.996309,178.20292 c 66.073811,-66.20234 64.793621,-65.11225 76.743081,-65.34749 12.91382,-0.25423 23.04974,5.81672 28.91782,17.32044 3.06383,6.00634 3.56728,8.00569 3.51284,13.95082 -0.11815,12.90354 0.51213,12.11891 -51.85439,64.5521 L 76.054602,256 123.31566,303.32121 c 52.25734,52.32388 51.74406,51.68666 51.84412,64.36176 0.0962,12.19038 -6.3382,22.60645 -17.22768,27.88819 -7.58667,3.67977 -14.97385,4.65915 -21.4499,2.84378 z"
     id="path2" />
  <path
     style="fill:#cccccc;stroke-width:1.03434"
     d="m 248.24242,510.57752 c -13.28493,-4.37392 -22.28188,-15.28562 -23.38168,-28.35783 -0.51476,-6.11843 2.53464,-17.17223 64.56753,-234.05156 35.80929,-125.19643 65.88558,-229.133907 66.83619,-230.972185 0.95061,-1.838278 3.48497,-5.098907 5.6319,-7.2458404 15.35047,-15.3504768 40.78975,-10.84131343 50.47081,8.9460544 5.59221,11.430076 9.66457,-4.733344 -61.5623,244.344241 -35.38311,123.73334 -65.13496,226.83152 -66.11522,229.10707 -2.51733,5.84368 -9.09062,12.6587 -15.20166,15.76071 -5.56169,2.82316 -16.35918,4.07813 -21.24557,2.46934 z"
     id="path3" />
  <path
     style="fill:#cccccc;stroke-width:1.03434"
     d="m 487.87117,398.34878 c -14.39987,-4.03459 -24.73394,-19.04393 -23.03931,-33.46259 1.25875,-10.71003 2.92858,-12.71412 51.50404,-61.8139 25.20636,-25.47846 45.82976,-46.65496 45.82976,-47.0589 0,-0.40394 -20.64601,-21.63402 -45.88003,-47.17795 -33.18586,-33.59345 -46.61903,-47.87444 -48.55101,-51.61524 -3.92966,-7.60882 -3.89782,-18.44575 0.078,-26.54181 5.57362,-11.34971 15.75452,-17.79474 28.19193,-17.84695 13.29819,-0.0558 11.56706,-1.50111 78.21278,65.29844 40.4401,40.53346 60.40925,61.2671 62.04819,64.42366 1.97813,3.80982 2.41673,6.25013 2.41673,13.44646 0,7.19633 -0.4386,9.63664 -2.41673,13.44646 -1.63894,3.15656 -21.60809,23.8902 -62.04819,64.42366 -46.53023,46.63763 -60.76772,60.32409 -64.80319,62.2952 -6.4814,3.16578 -14.96727,4.02587 -21.54297,2.18346 z"
     id="path4" />
</svg>
