<?xml version="1.0" encoding="UTF-8" standalone="no"?>
<svg
   viewBox="0 0 448 512"
   version="1.1"
   id="svg1"
   sodipodi:docname="code-branch.svg"
   inkscape:version="1.4.3 (0d15f75, 2025-12-25)"
   xmlns:inkscape="http://www.inkscape.org/namespaces/inkscape"
   xmlns:sodipodi="http://sodipodi.sourceforge.net/DTD/sodipodi-0.dtd"
   xmlns="http://www.w3.org/2000/svg"
   xmlns:svg="http://www.w3.org/2000/svg">
  <defs
     id="defs1" />
  <sodipodi:namedview
     id="namedview1"
     pagecolor="#ffffff"
     bordercolor="#000000"
     borderopacity="0.25"
     inkscape:showpageshadow="2"
     inkscape:pageopacity="0.0"
     inkscape:pagecheckerboard="0"
     inkscape:deskcolor="#d1d1d1"
     inkscape:zoom="0.96679688"
     inkscape:cx="223.93535"
     inkscape:cy="256"
     inkscape:window-width="1366"
     inkscape:window-height="697"
     inkscape:window-x="-8"
     inkscape:window-y="-8"
     inkscape:window-maximized="1"
     inkscape:current-layer="svg1" />
  <!--! Font Awesome Pro 6.1.1 by @fontawesome - https://fontawesome.com License - https://fontawesome.com/license (Commercial License) Copyright 2022 Fonticons, Inc. -->
  <path
     d="M160 80C160 112.8 140.3 140.1 112 153.3V241.1C130.8 230.2 152.7 224 176 224H272C307.3 224 336 195.3 336 160V153.3C307.7 140.1 288 112.8 288 80C288 35.82 323.8 0 368 0C412.2 0 448 35.82 448 80C448 112.8 428.3 140.1 400 153.3V160C400 230.7 342.7 288 272 288H176C140.7 288 112 316.7 112 352V358.7C140.3 371 160 399.2 160 432C160 476.2 124.2 512 80 512C35.82 512 0 476.2 0 432C0 399.2 19.75 371 48 358.7V153.3C19.75 140.1 0 112.8 0 80C0 35.82 35.82 0 80 0C124.2 0 160 35.82 160 80V80zM80 104C93.25 104 104 93.25 104 80C104 66.75 93.25 56 80 56C66.75 56 56 66.75 56 80C56 93.25 66.75 104 80 104zM368 56C354.7 56 344 66.75 344 80C344 93.25 354.7 104 368 104C381.3 104 392 93.25 392 80C392 66.75 381.3 56 368 56zM80 456C93.25 456 104 445.3 104 432C104 418.7 93.25 408 80 408C66.75 408 56 418.7 56 432C56 445.3 66.75 456 80 456z"
     id="path1" />
  <path
     style="fill:#cccccc;stroke-width:1.03434"
     d="M 66.544225,510.41628 C 41.933034,505.9945 19.337488,488.8486 8.6549691,466.48889 2.7298178,454.08688 0.72911717,443.91293 1.2479097,428.82254 1.6314883,417.66519 2.1482353,414.51172 4.8658521,406.74396 9.0337133,394.83094 13.429437,387.61028 22.238384,378.20687 c 6.646979,-7.09554 19.482999,-16.72426 24.357554,-18.27138 1.983856,-0.62965 2.0177,-2.39528 1.988628,-103.74661 l -0.02957,-103.10605 -7.829735,-4.65455 C 21.908822,137.24247 8.2181876,119.29704 3.0325471,99.021383 0.28598437,88.282425 0.32336368,71.904485 3.1194758,60.933133 10.026647,33.830854 28.774235,13.794105 55.910613,4.5118566 64.894334,1.438892 66.763212,1.1650608 79.127273,1.1101107 c 16.068847,-0.071415 22.510117,1.3963955 36.719187,8.367427 8.42263,4.1321753 11.23627,6.2374703 19.69711,14.7382993 10.8748,10.926191 16.33125,19.90272 20.80368,34.224567 3.16582,10.137772 3.45624,30.912188 0.57791,41.341 -5.69859,20.647236 -20.93499,39.963886 -39.20197,49.700076 l -6.0141,3.20548 v 44.50231 c 0,24.47628 0.34909,44.34716 0.77576,44.15753 0.42667,-0.18963 3.94639,-1.89503 7.82162,-3.7898 3.87522,-1.89476 10.39158,-4.59315 14.48081,-5.99643 17.11607,-5.87361 16.16721,-5.8001 84.49353,-6.54637 62.39836,-0.68152 63.75027,-0.73966 70.85252,-3.04697 11.01713,-3.57915 19.95769,-9.00032 27.4101,-16.62028 12.44883,-12.7287 18.61819,-27.33513 18.61819,-44.08 v -8.64817 L 332.8,150.89121 c -28.21447,-14.49975 -45.73248,-44.35809 -43.90218,-74.828488 0.7724,-12.858637 2.73743,-20.108396 8.70154,-32.103126 4.08615,-8.217904 6.41451,-11.350014 14.22508,-19.135614 17.74526,-17.6885556 37.30563,-25.42139236 60.5392,-23.93307614 12.36134,0.79185414 20.02329,2.79462374 30.51313,7.97588074 29.77657,14.7075734 47.70649,46.9863104 44.0056,79.2220604 -1.23106,10.722925 -5.1939,22.640703 -10.60556,31.894993 -5.69486,9.73861 -19.81252,23.59911 -29.49893,28.96161 l -7.47343,4.13738 -0.0281,8.79192 c -0.16857,52.74622 -35.48055,101.05173 -86.90462,118.88238 -16.83881,5.83866 -22.42043,6.27051 -81.49123,6.30511 -29.98872,0.0176 -58.01584,0.48436 -62.28251,1.03732 -11.09786,1.43826 -19.72377,4.60856 -28.48736,10.47 -9.42535,6.30406 -15.80884,13.46848 -21.15803,23.74638 -5.0012,9.60927 -7.20801,18.50215 -7.22821,29.12784 -0.0148,7.77824 0.0756,8.07634 2.75972,9.09682 5.74672,2.1849 16.98655,10.59963 23.28155,17.4298 15.42785,16.73946 22.22425,35.16379 21.20636,57.48819 -0.96772,21.22385 -7.91399,36.7378 -23.42844,52.32557 -8.46616,8.50618 -11.26918,10.60282 -19.69711,14.73331 -5.40444,2.6487 -12.61899,5.55078 -16.032319,6.44909 -7.492482,1.97184 -25.899556,2.77391 -33.269916,1.44972 z m 20.618496,-55.1814 c 9.80872,-2.95198 15.932159,-10.3845 16.988599,-20.62041 1.51832,-14.71113 -9.177733,-26.69528 -23.825983,-26.69528 -10.798277,0 -17.505245,4.01423 -21.976593,13.15333 -2.342237,4.78736 -2.670965,6.59721 -2.321524,12.78144 0.335626,5.93975 0.946279,7.96672 3.478821,11.54743 6.862647,9.70295 16.593827,13.16293 27.65668,9.83349 z M 91.694164,101.57682 C 96.430512,99.093017 101.95916,92.153702 103.45325,86.817329 109.27093,66.038637 87.68989,48.531415 68.393469,58.375714 56.632296,64.375816 52.299065,79.325481 58.744731,91.663897 64.706658,103.07634 80.03881,107.68905 91.694164,101.57682 Z m 290.118876,-1.21558 c 6.41106,-4.242645 9.5658,-9.960892 10.03026,-18.180765 0.46967,-8.311925 -0.97844,-13.314153 -5.26901,-18.200836 -12.36638,-14.084536 -35.83072,-9.524928 -41.68486,8.100233 -3.6866,11.099301 1.3509,24.269931 11.26232,29.445558 7.37878,3.85311 18.86722,3.3319 25.66129,-1.16419 z"
     id="path2" />
</svg>
