<?xml version="1.0" encoding="UTF-8" standalone="no"?>
<svg
   viewBox="0 0 448 512"
   version="1.1"
   id="svg1"
   sodipodi:docname="database.svg"
   inkscape:version="1.4.3 (0d15f75, 2025-12-25)"
   xmlns:inkscape="http://www.inkscape.org/namespaces/inkscape"
   xmlns:sodipodi="http://sodipodi.sourceforge.net/DTD/sodipodi-0.dtd"
   xmlns="http://www.w3.org/2000/svg"
   xmlns:svg="http://www.w3.org/2000/svg">
  <defs
     id="defs1" />
  <sodipodi:namedview
     id="namedview1"
     pagecolor="#ffffff"
     bordercolor="#000000"
     borderopacity="0.25"
     inkscape:showpageshadow="2"
     inkscape:pageopacity="0.0"
     inkscape:pagecheckerboard="0"
     inkscape:deskcolor="#d1d1d1"
     inkscape:zoom="0.96679688"
     inkscape:cx="223.93535"
     inkscape:cy="256"
     inkscape:window-width="1366"
     inkscape:window-height="697"
     inkscape:window-x="-8"
     inkscape:window-y="-8"
     inkscape:window-maximized="1"
     inkscape:current-layer="svg1" />
  <!--! Font Awesome Pro 6.1.1 by @fontawesome - https://fontawesome.com License - https://fontawesome.com/license (Commercial License) Copyright 2022 Fonticons, Inc. -->
  <path
     d="M448 80V128C448 172.2 347.7 208 224 208C100.3 208 0 172.2 0 128V80C0 35.82 100.3 0 224 0C347.7 0 448 35.82 448 80zM393.2 214.7C413.1 207.3 433.1 197.8 448 186.1V288C448 332.2 347.7 368 224 368C100.3 368 0 332.2 0 288V186.1C14.93 197.8 34.02 207.3 54.85 214.7C99.66 230.7 159.5 240 224 240C288.5 240 348.3 230.7 393.2 214.7V214.7zM54.85 374.7C99.66 390.7 159.5 400 224 400C288.5 400 348.3 390.7 393.2 374.7C413.1 367.3 433.1 357.8 448 346.1V432C448 476.2 347.7 512 224 512C100.3 512 0 476.2 0 432V346.1C14.93 357.8 34.02 367.3 54.85 374.7z"
     id="path1" />
  <path
     style="fill:#cccccc;stroke-width:1.03434"
     d="M 184.6303,206.26275 C 105.83516,201.03333 41.074085,181.42351 14.407523,154.71883 5.7604734,146.05941 2.4988685,140.34098 1.0053764,131.22142 c -1.28696564,-7.85846 -1.28696564,-46.681341 0,-54.539811 C 3.7450896,59.952374 16.764191,46.882496 43.959596,33.559859 61.04994,25.187547 73.62088,20.727993 95.878112,15.141715 216.38906,-15.104978 383.99301,3.8321915 433.64816,53.305549 c 5.38213,5.362421 8.95053,9.981914 10.86061,14.059663 l 2.84477,6.073172 v 30.513136 30.51313 l -2.81342,6.00468 c -13.80038,29.45426 -73.77681,54.25077 -152.85527,63.1961 -31.7835,3.59535 -75.89202,4.66549 -107.05455,2.59732 z"
     id="path2" />
  <path
     style="fill:#cccccc;stroke-width:1.03434"
     d="M 189.80202,366.56193 C 158.27844,364.85445 125.0239,360.05718 97.462665,353.24116 47.096919,340.78546 14.01744,322.25709 3.8608828,300.81322 L 0.51717172,293.75354 0.19833453,240.63716 c -0.17536052,-29.21401 0.0573667,-52.95177 0.51717171,-52.75058 0.45980486,0.20119 4.20059816,2.5924 8.31287416,5.31379 74.2583976,49.14228 245.8156096,62.3857 364.8619496,28.16566 25.05608,-7.20241 50.14355,-18.15492 66.10118,-28.858 3.91533,-2.62608 7.31312,-4.7747 7.55065,-4.7747 0.23752,0 0.29225,24.08728 0.12162,53.52728 l -0.31024,53.52727 -2.94102,5.99282 c -21.15758,43.11226 -134.1532,72.30583 -254.6105,65.78123 z"
     id="path3" />
  <path
     style="fill:#cccccc;stroke-width:1.03434"
     d="M 185.66465,510.40959 C 142.84418,507.47074 99.079818,499.48694 68.985183,489.12411 54.920874,484.28118 34.870662,474.56069 25.303419,467.94686 16.148066,461.61776 7.3660201,452.47152 4.2359855,446.00572 0.54464109,438.38043 0.0122518,431.10266 0.00599092,388.18168 L 0,347.11084 l 8.2829881,5.54412 c 66.5400399,44.53779 212.8865719,60.74096 332.0160019,36.76009 41.75708,-8.40574 74.9097,-20.63915 99.097,-36.56707 l 8.59196,-5.65801 -0.31721,45.68583 -0.3172,45.68582 -3.02049,6.20606 c -4.43487,9.11211 -16.21681,20.44937 -29.20832,28.1059 -29.73198,17.52252 -77.39043,30.26318 -134.81766,36.04114 -19.12222,1.92396 -75.4315,2.81336 -94.64242,1.49487 z"
     id="path4" />
</svg>
