<?xml version="1.0" encoding="UTF-8" standalone="no"?>
<svg
   viewBox="0 0 576 512"
   version="1.1"
   id="svg1"
   sodipodi:docname="display-code.svg"
   inkscape:version="1.4.3 (0d15f75, 2025-12-25)"
   xmlns:inkscape="http://www.inkscape.org/namespaces/inkscape"
   xmlns:sodipodi="http://sodipodi.sourceforge.net/DTD/sodipodi-0.dtd"
   xmlns="http://www.w3.org/2000/svg"
   xmlns:svg="http://www.w3.org/2000/svg">
  <defs
     id="defs1" />
  <sodipodi:namedview
     id="namedview1"
     pagecolor="#ffffff"
     bordercolor="#000000"
     borderopacity="0.25"
     inkscape:showpageshadow="2"
     inkscape:pageopacity="0.0"
     inkscape:pagecheckerboard="0"
     inkscape:deskcolor="#d1d1d1"
     inkscape:zoom="0.96679688"
     inkscape:cx="288.06465"
     inkscape:cy="256"
     inkscape:window-width="1366"
     inkscape:window-height="697"
     inkscape:window-x="-8"
     inkscape:window-y="-8"
     inkscape:window-maximized="1"
     inkscape:current-layer="svg1" />
  <!--! Font Awesome Pro 6.1.1 by @fontawesome - https://fontawesome.com License - https://fontawesome.com/license (Commercial License) Copyright 2022 Fonticons, Inc. -->
  <path
     d="M333.9 270.2C337.8 274.1 342.9 276 348 276s10.23-1.938 14.14-5.844l48-48c7.812-7.812 7.812-20.5 0-28.31l-48-48c-7.812-7.812-20.47-7.812-28.28 0s-7.812 20.5 0 28.31l33.86 33.84l-33.86 33.84C326 249.7 326 262.4 333.9 270.2zM528 0h-480C21.5 0 0 21.5 0 48v320C0 394.5 21.5 416 48 416h192L224 464H152C138.8 464 128 474.8 128 488S138.8 512 152 512h272c13.25 0 24-10.75 24-24s-10.75-24-24-24H352L336 416h192c26.5 0 48-21.5 48-48v-320C576 21.5 554.5 0 528 0zM512 352H64V64h448V352zM213.9 270.2C217.8 274.1 222.9 276 228 276S238.2 274.1 242.1 270.2c7.812-7.812 7.812-20.5 0-28.31L208.3 208L242.1 174.2c7.812-7.812 7.812-20.5 0-28.31s-20.47-7.812-28.28 0l-48 48c-7.812 7.812-7.812 20.5 0 28.31L213.9 270.2z"
     id="path1" />
  <path
     style="fill:#cccccc;stroke-width:1.03434"
     d="m 141.84213,508.77156 c -14.76802,-7.35921 -17.62887,-26.47417 -5.66211,-37.83184 6.19889,-5.88339 7.17726,-6.00235 49.36537,-6.00235 h 38.73506 l 7.84361,-23.53177 c 4.31399,-12.94249 7.84362,-24.10238 7.84362,-24.79976 0,-0.99055 -22.23502,-1.32991 -101.62425,-1.55105 L 36.719192,414.77172 28.76945,410.97546 C 15.982553,404.8693 7.9931029,396.13042 2.8489727,382.62357 L 0.51717172,376.50101 V 208.93737 41.373737 L 2.8639313,33.908609 C 7.1003692,20.432344 17.951421,9.0457636 31.957389,3.3793136 L 37.753535,1.0343434 284.96162,0.76075691 c 173.85854,-0.19241012 248.80994,0.0575801 252.60681,0.84253579 14.0872,2.9123584 26.69336,12.9939783 33.14628,26.5083193 l 3.86307,8.090408 0.2707,169.88759 0.27069,169.88758 -2.1601,6.41215 c -4.08033,12.11228 -12.3487,21.89593 -23.20553,27.45825 -10.83369,5.55044 -7.98213,5.41581 -114.98967,5.42902 l -99.47452,0.0123 8.28245,24.82424 8.28244,24.82424 h 38.88975 c 37.20158,0 39.08154,0.0929 43.30823,2.13895 9.46964,4.58418 14.96211,15.51037 12.76612,25.39568 -1.49235,6.7178 -5.51853,12.32328 -11.28716,15.71461 l -4.72714,2.77905 -141.73182,0.2729 -141.73183,0.2729 z M 512,207.90303 V 63.612121 H 287.54747 63.094949 V 207.90303 352.19394 H 287.54747 512 Z"
     id="path2" />
  <path
     style="fill:#cccccc;stroke-width:1.03434"
     d="m 219.69116,273.07743 c -3.77825,-1.88278 -12.12188,-9.59951 -31.03483,-28.70303 -21.32937,-21.54427 -26.0836,-26.87481 -27.1002,-30.38531 -3.19076,-11.01818 -1.93452,-12.8864 29.94218,-44.52848 23.07722,-22.90736 27.91906,-27.23719 31.52123,-28.18801 15.40222,-4.06552 28.82503,11.64059 22.6266,26.47553 -0.9365,2.24136 -8.88965,11.13799 -19.86173,22.21793 l -18.29979,18.47968 18.75815,18.864 c 10.31698,10.3752 19.25476,20.17429 19.86173,21.77578 3.63029,9.57847 -0.96505,20.0566 -10.79137,24.60603 -5.60227,2.59377 -9.49138,2.44089 -15.62197,-0.61412 z"
     id="path3" />
  <path
     style="fill:#cccccc;stroke-width:1.03434"
     d="m 339.72054,273.10013 c -10.71231,-5.33818 -14.21064,-17.80138 -7.73914,-27.57156 1.68311,-2.54103 10.5821,-11.97423 19.77556,-20.96267 l 16.71536,-16.34261 -18.1009,-18.26114 c -9.95549,-10.04363 -18.85449,-19.75075 -19.77555,-21.57139 -2.03882,-4.03008 -2.16898,-11.60543 -0.27721,-16.13307 1.84714,-4.42083 7.93488,-9.65753 12.7965,-11.00762 4.83184,-1.34181 5.03166,-1.34107 10.11312,0.0372 3.42935,0.93018 8.79676,5.75262 31.36464,28.18009 14.97499,14.88182 27.8353,28.22149 28.57846,29.64371 2.28638,4.37559 2.8142,8.93475 1.57664,13.6185 -1.02878,3.89357 -4.74034,8.06482 -28.24904,31.74784 -32.76698,33.00995 -35.10434,34.44013 -46.77844,28.62268 z"
     id="path4" />
</svg>
