<?xml version="1.0" encoding="UTF-8" standalone="no"?>
<svg
   viewBox="0 0 640 512"
   version="1.1"
   id="svg1"
   sodipodi:docname="network-wired.svg"
   inkscape:version="1.4.3 (0d15f75, 2025-12-25)"
   xmlns:inkscape="http://www.inkscape.org/namespaces/inkscape"
   xmlns:sodipodi="http://sodipodi.sourceforge.net/DTD/sodipodi-0.dtd"
   xmlns="http://www.w3.org/2000/svg"
   xmlns:svg="http://www.w3.org/2000/svg">
  <defs
     id="defs1" />
  <sodipodi:namedview
     id="namedview1"
     pagecolor="#ffffff"
     bordercolor="#000000"
     borderopacity="0.25"
     inkscape:showpageshadow="2"
     inkscape:pageopacity="0.0"
     inkscape:pagecheckerboard="0"
     inkscape:deskcolor="#d1d1d1"
     inkscape:zoom="0.96679688"
     inkscape:cx="320.12929"
     inkscape:cy="256"
     inkscape:window-width="1366"
     inkscape:window-height="697"
     inkscape:window-x="-8"
     inkscape:window-y="-8"
     inkscape:window-maximized="1"
     inkscape:current-layer="svg1" />
  <!--! Font Awesome Pro 6.1.1 by @fontawesome - https://fontawesome.com License - https://fontawesome.com/license (Commercial License) Copyright 2022 Fonticons, Inc. -->
  <path
     d="M400 0C426.5 0 448 21.49 448 48V144C448 170.5 426.5 192 400 192H352V224H608C625.7 224 640 238.3 640 256C640 273.7 625.7 288 608 288H512V320H560C586.5 320 608 341.5 608 368V464C608 490.5 586.5 512 560 512H400C373.5 512 352 490.5 352 464V368C352 341.5 373.5 320 400 320H448V288H192V320H240C266.5 320 288 341.5 288 368V464C288 490.5 266.5 512 240 512H80C53.49 512 32 490.5 32 464V368C32 341.5 53.49 320 80 320H128V288H32C14.33 288 0 273.7 0 256C0 238.3 14.33 224 32 224H288V192H240C213.5 192 192 170.5 192 144V48C192 21.49 213.5 0 240 0H400zM256 64V128H384V64H256zM224 448V384H96V448H224zM416 384V448H544V384H416z"
     id="path1" />
  <path
     style="fill:#cccccc;stroke-width:1.03434"
     d="M 68.540302,509.88829 C 49.523124,504.76673 35.596016,489.05527 33.111303,469.9201 c -1.300264,-10.01355 -1.289834,-98.63922 0.0127,-107.8999 2.895357,-20.58525 19.710267,-37.61393 40.314383,-40.82688 3.697778,-0.57661 17.54505,-1.05191 30.771714,-1.05622 l 24.04849,-0.008 V 303.5798 287.0303 H 77.242843 c -57.303991,0 -56.813563,0.0557 -65.306865,-7.42038 C 9.3354305,277.32083 5.9350658,273.28306 4.3796123,270.6371 1.8344439,266.30755 1.5515152,264.84322 1.5515152,256 c 0,-8.84322 0.2829287,-10.30755 2.8280971,-14.6371 1.5554535,-2.64596 4.9558182,-6.68373 7.5563657,-8.97282 9.016883,-7.93699 -1.110487,-7.42038 145.468482,-7.42038 h 131.17736 v -16.5495 -16.54949 l -24.56566,-0.008 c -13.51111,-0.004 -27.58208,-0.49721 -31.26882,-1.09535 -18.76014,-3.04367 -34.56818,-17.80252 -38.74699,-36.17531 -2.36906,-10.416 -2.39299,-108.235741 -0.0287,-117.312895 4.68693,-17.994339 18.85582,-31.8174937 36.47925,-35.5891258 3.83263,-0.82022973 30.91072,-1.17304748 90.02915,-1.17304748 71.60686,0 85.45461,0.23615891 90.47152,1.54289698 19.09246,4.9729546 32.90567,20.1769633 35.90725,39.5226293 0.74727,4.816299 1.0232,24.951601 0.80705,58.892142 -0.32265,50.66019 -0.37022,51.68958 -2.68609,58.1197 -4.72252,13.11225 -12.72614,22.13772 -24.66901,27.81856 -9.77888,4.6515 -16.01634,5.41211 -44.58553,5.43681 l -24.04848,0.0208 v 16.54949 16.5495 h 131.17736 c 146.62672,0 136.44637,-0.5212 145.50109,7.44908 2.61848,2.30488 6.01231,6.57538 7.54185,9.49 2.38466,4.5441 2.78098,6.55224 2.78098,14.09122 0,7.53898 -0.39632,9.54712 -2.78098,14.09122 -1.52954,2.91462 -4.92337,7.18512 -7.54185,9.49 -8.53017,7.50856 -8.00849,7.44908 -65.33948,7.44908 H 512 v 16.5495 16.54949 l 24.04848,0.008 c 13.22667,0.004 27.07394,0.49029 30.77172,1.07997 13.61944,2.17189 25.37408,9.93728 33.14521,21.89651 7.29993,11.23409 7.35806,11.86423 6.9977,75.85114 l -0.32069,56.9445 -3.96852,8.0278 c -6.62067,13.3927 -17.40878,22.3589 -31.23531,25.96025 -9.29311,2.42055 -173.47266,2.37486 -182.89333,-0.0509 -16.05002,-4.13276 -28.8761,-16.40662 -33.80256,-32.34724 -1.91033,-6.18123 -2.03159,-9.82615 -2.03159,-61.06753 0,-45.74971 0.25599,-55.48314 1.59531,-60.65872 4.5075,-17.41839 20.4513,-31.63865 38.74409,-34.5558 3.69777,-0.58968 17.77777,-1.07566 31.28888,-1.07997 l 24.56566,-0.008 V 303.5798 287.0303 H 320.12929 191.35354 v 16.5495 16.54949 l 24.56565,0.008 c 13.51111,0.004 27.58208,0.49721 31.26882,1.09535 18.5982,3.0174 33.95043,17.13361 38.77391,35.6522 1.3237,5.08201 1.58555,14.75503 1.58555,58.57064 0,35.2144 -0.38597,54.28681 -1.17304,57.96451 -1.9605,9.16066 -6.00322,16.37559 -13.25779,23.66077 -7.27128,7.30197 -14.42541,11.31292 -23.6322,13.24939 -3.79002,0.79716 -31.71471,1.13186 -90.50505,1.0848 -69.752009,-0.0559 -85.996512,-0.33003 -90.439088,-1.52647 z M 224.45253,415.80606 V 383.22424 H 159.80606 95.159596 v 32.58182 32.58182 h 64.646464 64.64647 z m 319.61212,0 v -32.58182 h -64.1293 -64.12929 v 32.58182 32.58182 h 64.12929 64.1293 z M 384.77576,96.193939 V 63.612121 h -64.64647 -64.64646 v 32.581818 32.581821 h 64.64646 64.64647 z"
     id="path2" />
</svg>
