<?xml version="1.0" encoding="UTF-8" standalone="no"?>
<svg
   viewBox="0 0 512 512"
   version="1.1"
   id="svg1"
   sodipodi:docname="palette.svg"
   inkscape:version="1.4.3 (0d15f75, 2025-12-25)"
   xmlns:inkscape="http://www.inkscape.org/namespaces/inkscape"
   xmlns:sodipodi="http://sodipodi.sourceforge.net/DTD/sodipodi-0.dtd"
   xmlns="http://www.w3.org/2000/svg"
   xmlns:svg="http://www.w3.org/2000/svg">
  <defs
     id="defs1" />
  <sodipodi:namedview
     id="namedview1"
     pagecolor="#ffffff"
     bordercolor="#000000"
     borderopacity="0.25"
     inkscape:showpageshadow="2"
     inkscape:pageopacity="0.0"
     inkscape:pagecheckerboard="0"
     inkscape:deskcolor="#d1d1d1"
     inkscape:zoom="0.96679688"
     inkscape:cx="256"
     inkscape:cy="256"
     inkscape:window-width="1366"
     inkscape:window-height="697"
     inkscape:window-x="-8"
     inkscape:window-y="-8"
     inkscape:window-maximized="1"
     inkscape:current-layer="svg1" />
  <!--! Font Awesome Pro 6.1.1 by @fontawesome - https://fontawesome.com License - https://fontawesome.com/license (Commercial License) Copyright 2022 Fonticons, Inc. -->
  <path
     d="M512 255.1C512 256.9 511.1 257.8 511.1 258.7C511.6 295.2 478.4 319.1 441.9 319.1H344C317.5 319.1 296 341.5 296 368C296 371.4 296.4 374.7 297 377.9C299.2 388.1 303.5 397.1 307.9 407.8C313.9 421.6 320 435.3 320 449.8C320 481.7 298.4 510.5 266.6 511.8C263.1 511.9 259.5 512 256 512C114.6 512 0 397.4 0 256C0 114.6 114.6 0 256 0C397.4 0 512 114.6 512 256V255.1zM96 255.1C78.33 255.1 64 270.3 64 287.1C64 305.7 78.33 319.1 96 319.1C113.7 319.1 128 305.7 128 287.1C128 270.3 113.7 255.1 96 255.1zM128 191.1C145.7 191.1 160 177.7 160 159.1C160 142.3 145.7 127.1 128 127.1C110.3 127.1 96 142.3 96 159.1C96 177.7 110.3 191.1 128 191.1zM256 63.1C238.3 63.1 224 78.33 224 95.1C224 113.7 238.3 127.1 256 127.1C273.7 127.1 288 113.7 288 95.1C288 78.33 273.7 63.1 256 63.1zM384 191.1C401.7 191.1 416 177.7 416 159.1C416 142.3 401.7 127.1 384 127.1C366.3 127.1 352 142.3 352 159.1C352 177.7 366.3 191.1 384 191.1z"
     id="path1" />
  <path
     style="fill:#cccccc;stroke-width:1.03434"
     d="M 232.17629,510.45069 C 183.72493,505.4126 140.23333,488.25876 100.63385,458.56805 79.693802,442.86773 54.677466,415.27698 38.884979,390.46465 32.445121,380.34668 20.825322,356.45586 16.036123,343.4864 -4.1962247,288.69588 -4.2010381,223.46951 16.023212,168.5136 18.099693,162.87112 23.234236,151.27273 27.433307,142.73939 83.284514,29.238788 215.38658,-26.291211 335.34541,13.306456 c 57.14217,18.862283 104.6377,56.173765 137.76961,108.228894 11.41554,17.9355 23.94227,46.96547 29.64426,68.69887 5.87663,22.39906 7.61018,35.42446 7.65147,57.49103 0.0337,18.00652 -0.20804,20.95084 -2.25381,27.45306 -4.81427,15.30145 -15.76158,27.3719 -31.84179,35.10863 -17.04092,8.19895 -15.18146,8.0059 -83.83884,8.70405 l -61.08329,0.62113 -7.77869,3.84611 c -17.47719,8.64145 -27.79211,25.05397 -27.79211,44.22128 0,10.52033 1.69852,16.48282 11.33013,39.77352 10.24251,24.76793 11.81541,30.48354 11.83427,43.00354 0.0254,16.85941 -5.5003,31.51877 -16.22693,43.04902 -6.97227,7.49463 -13.4514,11.91185 -22.01895,15.01166 -5.15198,1.86404 -8.82805,2.26136 -23.18922,2.50629 -9.38667,0.16009 -20.80552,-0.0977 -25.37523,-0.57285 z M 108.16322,317.36149 c 7.51148,-2.5544 16.00637,-11.42493 18.45123,-19.26712 3.9323,-12.61335 0.85362,-25.15841 -8.4171,-34.29817 -12.47445,-12.29824 -34.577023,-11.6209 -46.018527,1.41025 -10.734363,12.22577 -11.279417,30.07062 -1.317409,43.13148 2.819875,3.69706 8.170497,7.30554 13.832988,9.32903 5.345091,1.91007 17.415818,1.75296 23.468818,-0.30547 z m 34.03902,-128.96878 c 6.38224,-2.9219 12.03016,-8.48194 15.24572,-15.00853 1.92859,-3.91443 2.35636,-6.48178 2.34857,-14.09529 -0.008,-8.07487 -0.37353,-9.99477 -2.75507,-14.48081 -12.76387,-24.04291 -46.00726,-23.99848 -57.859734,0.0773 -2.782794,5.65265 -3.396513,8.12113 -3.418452,13.74954 -0.06223,15.96447 8.416506,27.49787 23.270386,31.65409 7.22533,2.0217 16.21823,1.28564 23.16858,-1.89633 z m 254.45969,0.74433 c 7.18558,-2.4612 15.10724,-10.52772 17.6633,-17.98631 7.95201,-23.204 -9.21818,-46.1098 -33.12539,-44.19076 -10.96136,0.87987 -20.77769,7.55649 -26.2413,17.84811 -2.38154,4.48604 -2.74682,6.40594 -2.75507,14.48081 -0.011,10.75539 2.0208,16.15593 8.54089,22.7016 9.29312,9.32959 22.10284,11.87835 35.91757,7.14655 z M 269.73222,124.62528 c 6.44896,-2.84378 12.99728,-9.39136 15.91883,-15.91701 3.43198,-7.66576 3.37859,-19.862417 -0.11806,-26.968163 -3.2406,-6.585397 -10.20283,-13.541063 -16.40059,-16.385122 -6.81451,-3.127072 -19.45029,-3.127072 -26.2648,0 -6.19776,2.844059 -13.15999,9.799725 -16.40059,16.385122 -3.50654,7.125861 -3.5693,19.355363 -0.13788,26.865953 4.11458,9.00582 12.09219,15.66896 21.63865,18.07324 5.64694,1.42219 16.1235,0.43346 21.76444,-2.05402 z"
     id="path2" />
</svg>
