<?xml version="1.0" encoding="UTF-8" standalone="no"?>
<svg
   viewBox="0 0 512 512"
   version="1.1"
   id="svg1"
   sodipodi:docname="server.svg"
   inkscape:version="1.4.3 (0d15f75, 2025-12-25)"
   xmlns:inkscape="http://www.inkscape.org/namespaces/inkscape"
   xmlns:sodipodi="http://sodipodi.sourceforge.net/DTD/sodipodi-0.dtd"
   xmlns="http://www.w3.org/2000/svg"
   xmlns:svg="http://www.w3.org/2000/svg">
  <defs
     id="defs1" />
  <sodipodi:namedview
     id="namedview1"
     pagecolor="#ffffff"
     bordercolor="#000000"
     borderopacity="0.25"
     inkscape:showpageshadow="2"
     inkscape:pageopacity="0.0"
     inkscape:pagecheckerboard="0"
     inkscape:deskcolor="#d1d1d1"
     inkscape:zoom="0.96679688"
     inkscape:cx="171.18384"
     inkscape:cy="244.62222"
     inkscape:window-width="1366"
     inkscape:window-height="697"
     inkscape:window-x="-8"
     inkscape:window-y="-8"
     inkscape:window-maximized="1"
     inkscape:current-layer="svg1" />
  <!--! Font Awesome Pro 6.1.1 by @fontawesome - https://fontawesome.com License - https://fontawesome.com/license (Commercial License) Copyright 2022 Fonticons, Inc. -->
  <path
     d="M480 288H32c-17.62 0-32 14.38-32 32v128c0 17.62 14.38 32 32 32h448c17.62 0 32-14.38 32-32v-128C512 302.4 497.6 288 480 288zM352 408c-13.25 0-24-10.75-24-24s10.75-24 24-24s24 10.75 24 24S365.3 408 352 408zM416 408c-13.25 0-24-10.75-24-24s10.75-24 24-24s24 10.75 24 24S429.3 408 416 408zM480 32H32C14.38 32 0 46.38 0 64v128c0 17.62 14.38 32 32 32h448c17.62 0 32-14.38 32-32V64C512 46.38 497.6 32 480 32zM352 152c-13.25 0-24-10.75-24-24S338.8 104 352 104S376 114.8 376 128S365.3 152 352 152zM416 152c-13.25 0-24-10.75-24-24S402.8 104 416 104S440 114.8 440 128S429.3 152 416 152z"
     id="path1" />
  <path
     style="fill:#cccccc;stroke-width:1.03434"
     d="M 26.810644,222.89827 C 20.287346,221.78323 14.742526,218.71487 9.6801523,213.41869 -0.09065513,203.19662 -0.16976006,202.44145 0.2077667,122.99056 L 0.51717172,57.875965 3.9222288,50.961196 C 7.9287378,42.825037 13.522227,37.613474 21.419356,34.658779 26.916519,32.602027 29.198975,32.581818 256,32.581818 c 226.80102,0 229.08348,0.02021 234.58064,2.076961 7.89713,2.954695 13.49062,8.166258 17.49713,16.302417 l 3.40506,6.914769 0.3094,65.114595 c 0.32027,67.39835 -0.0692,75.81163 -3.85092,83.188 -2.88435,5.62603 -9.16933,11.48509 -15.59384,14.53709 l -5.68888,2.70253 -227.55556,0.14488 C 133.94747,223.64275 29.415901,223.3436 26.810644,222.89827 Z M 364.93355,148.74888 c 12.54951,-7.75877 15.21574,-25.33389 5.55541,-36.61982 -4.93725,-5.76806 -10.39092,-8.12641 -18.85795,-8.15483 -5.82146,-0.0195 -7.55262,0.44785 -12.36719,3.3389 -4.34843,2.61115 -6.26294,4.63163 -8.57585,9.05051 -2.63522,5.03468 -2.93582,6.54375 -2.61398,13.12269 0.30585,6.25183 0.85438,8.12763 3.44989,11.79747 1.69742,2.40002 4.27677,5.24618 5.73189,6.3248 7.79568,5.7786 19.40205,6.25677 27.67778,1.14028 z m 61.99023,1.36539 c 18.4633,-9.54773 17.54055,-36.78194 -1.51682,-44.76798 -5.74966,-2.40941 -15.31035,-1.79418 -21.10176,1.35791 -8.36779,4.55432 -12.28904,11.29311 -12.28904,21.11911 0,10.67969 4.38183,17.69107 13.96364,22.34326 4.21542,2.04669 6.32791,2.43018 11.42452,2.07398 3.43903,-0.24036 7.7228,-1.19718 9.51946,-2.12628 z"
     id="path2" />
  <path
     style="fill:#cccccc;stroke-width:1.03434"
     d="m 21.125763,477.29058 c -7.65268,-2.9442 -13.258949,-8.24102 -17.2035342,-16.25395 l -3.40505708,-6.91696 v -70.3568 -70.35681 l 2.43319638,-5.38044 c 3.0752314,-6.80015 11.4859489,-14.83949 18.2566849,-17.45055 5.047857,-1.94665 10.549552,-1.99325 235.310117,-1.99325 h 230.14142 l 5.68888,2.70253 c 6.42451,3.05199 12.70949,8.91105 15.59384,14.53708 3.78171,7.37638 4.17119,15.78966 3.85092,83.18801 l -0.3094,65.1146 -3.40506,6.91476 c -4.00651,8.13617 -9.6,13.34773 -17.49713,16.30242 -5.49887,2.05739 -7.71195,2.07645 -234.87802,2.02306 -224.927654,-0.0529 -229.427573,-0.0926 -234.576857,-2.0737 z m 341.469337,-71.193 c 17.16831,-7.79808 18.37473,-32.93199 2.06473,-43.01569 -4.40806,-2.72529 -6.01069,-3.1264 -12.38478,-3.09966 -11.08385,0.0465 -19.0099,5.1682 -23.09788,14.92549 -2.47108,5.89803 -1.36629,16.31124 2.37205,22.35787 5.97842,9.66987 20.25778,13.7321 31.04588,8.83199 z m 63.32903,0.34452 c 18.52972,-7.7403 19.26097,-35.11308 1.18771,-44.45913 -4.57627,-2.36648 -12.57712,-3.04072 -18.01518,-1.51815 -6.20652,1.73771 -13.35674,8.13561 -15.57047,13.9322 -2.64826,6.93437 -1.78148,17.61286 1.87858,23.14359 4.2631,6.44199 12.03511,10.48601 20.17593,10.49817 3.57382,0.005 8.22837,-0.71317 10.34343,-1.59668 z"
     id="path3" />
</svg>
