<?xml version="1.0" encoding="UTF-8" standalone="no"?>
<svg
   viewBox="0 0 448 512"
   version="1.1"
   id="svg1"
   sodipodi:docname="square-code.svg"
   inkscape:version="1.4.3 (0d15f75, 2025-12-25)"
   xmlns:inkscape="http://www.inkscape.org/namespaces/inkscape"
   xmlns:sodipodi="http://sodipodi.sourceforge.net/DTD/sodipodi-0.dtd"
   xmlns="http://www.w3.org/2000/svg"
   xmlns:svg="http://www.w3.org/2000/svg">
  <defs
     id="defs1" />
  <sodipodi:namedview
     id="namedview1"
     pagecolor="#ffffff"
     bordercolor="#000000"
     borderopacity="0.25"
     inkscape:showpageshadow="2"
     inkscape:pageopacity="0.0"
     inkscape:pagecheckerboard="0"
     inkscape:deskcolor="#d1d1d1"
     inkscape:zoom="0.96679688"
     inkscape:cx="223.93535"
     inkscape:cy="256"
     inkscape:window-width="1366"
     inkscape:window-height="697"
     inkscape:window-x="-8"
     inkscape:window-y="-8"
     inkscape:window-maximized="1"
     inkscape:current-layer="svg1" />
  <!--! Font Awesome Pro 6.1.1 by @fontawesome - https://fontawesome.com License - https://fontawesome.com/license (Commercial License) Copyright 2022 Fonticons, Inc. -->
  <path
     d="M0 96C0 60.65 28.65 32 64 32H384C419.3 32 448 60.65 448 96V416C448 451.3 419.3 480 384 480H64C28.65 480 0 451.3 0 416V96zM262.2 167.9C253.3 177.8 254.1 192.1 263.9 201.8L324.1 256L263.9 310.2C254.1 319 253.3 334.2 262.2 344.1C271 353.9 286.2 354.7 296.1 345.8L376.1 273.8C381.1 269.3 384 262.8 384 256C384 249.2 381.1 242.7 376.1 238.2L296.1 166.2C286.2 157.3 271 158.1 262.2 167.9V167.9zM184.1 201.8C193.9 192.1 194.7 177.8 185.8 167.9C176.1 158.1 161.8 157.3 151.9 166.2L71.94 238.2C66.89 242.7 64 249.2 64 256C64 262.8 66.89 269.3 71.94 273.8L151.9 345.8C161.8 354.7 176.1 353.9 185.8 344.1C194.7 334.2 193.9 319 184.1 310.2L123.9 256L184.1 201.8z"
     id="path1" />
  <path
     style="fill:#cccccc;stroke-width:1.03434"
     d="M 53.785859,478.70361 C 43.951335,477.05734 29.943571,470.2877 22.00856,463.34635 15.196759,457.38756 7.1150854,445.33972 4.2437284,436.86326 3.0184858,433.24624 1.5397227,425.86505 0.95758812,420.46061 0.26796746,414.05828 0.00765528,354.04932 0.21052468,248.24242 L 0.5218876,85.850505 2.938282,78.610101 C 8.772036,61.130036 19.737084,47.856224 34.650505,40.220657 c 14.9988,-7.679279 0.137678,-7.121667 189.802025,-7.121667 163.20714,0 171.44892,0.08832 176.87272,1.895381 22.29946,7.429566 38.01741,23.516924 44.13008,45.167245 1.80623,6.397455 1.89821,14.917809 1.89821,175.838384 0,160.4688 -0.0963,169.45466 -1.884,175.75568 -5.27839,18.60475 -17.60653,33.31528 -34.8175,41.54585 -13.32333,6.37145 -4.54866,6.09224 -187.23386,5.95783 -91.87555,-0.0676 -168.210099,-0.31768 -169.632321,-0.55575 z M 178.49754,349.73141 c 12.12297,-5.64503 17.08783,-19.19999 11.65672,-31.82495 -1.94287,-4.51633 -6.28504,-8.83882 -33.35758,-33.20642 -17.11818,-15.40782 -31.12395,-28.32562 -31.12395,-28.70622 0,-0.38059 13.81272,-13.1164 30.69496,-28.30179 25.41696,-22.86231 31.15279,-28.52858 33.35757,-32.95301 6.16843,-12.37843 1.22621,-26.6713 -11.22772,-32.47043 -6.49716,-3.02538 -14.86363,-3.22948 -20.76017,-0.50645 -2.32289,1.07273 -23.03705,18.97709 -47.23251,40.82562 C 63.496871,245.03601 63.731469,244.76812 63.731469,256 c 0,11.23188 -0.234598,10.96399 46.773391,53.41224 24.19546,21.84853 44.90962,39.75289 47.23251,40.82562 5.89654,2.72303 14.26301,2.51893 20.76017,-0.50645 z m 111.63579,0.52688 c 6.41426,-2.93044 88.89028,-77.70336 91.70538,-83.14028 3.14732,-6.07853 3.14732,-16.15749 0,-22.23602 -2.8151,-5.43692 -85.29112,-80.20984 -91.70538,-83.14028 -4.97015,-2.27068 -14.6847,-2.52649 -19.50239,-0.51353 -9.56785,3.99771 -15.79202,14.29788 -14.85882,24.58939 0.30358,3.34796 1.55756,7.73431 2.88765,10.10088 1.48437,2.64108 13.72083,14.39084 33.19402,31.87374 16.96364,15.22985 30.84298,27.92337 30.84298,28.20781 0,0.28444 -14.00525,13.08444 -31.12278,28.44444 -20.69984,18.57451 -31.85784,29.31287 -33.31766,32.06465 -3.09189,5.82823 -3.06447,16.97039 0.0563,22.88403 2.47842,4.69643 7.37671,9.2711 12.16817,11.36427 4.56904,1.99602 14.75748,1.73726 19.65252,-0.4991 z"
     id="path2" />
</svg>
