<?xml version="1.0" encoding="UTF-8" standalone="no"?>
<svg
   viewBox="0 0 576 512"
   version="1.1"
   id="svg1"
   sodipodi:docname="terminal.svg"
   inkscape:version="1.4.3 (0d15f75, 2025-12-25)"
   xmlns:inkscape="http://www.inkscape.org/namespaces/inkscape"
   xmlns:sodipodi="http://sodipodi.sourceforge.net/DTD/sodipodi-0.dtd"
   xmlns="http://www.w3.org/2000/svg"
   xmlns:svg="http://www.w3.org/2000/svg">
  <defs
     id="defs1" />
  <sodipodi:namedview
     id="namedview1"
     pagecolor="#ffffff"
     bordercolor="#000000"
     borderopacity="0.25"
     inkscape:showpageshadow="2"
     inkscape:pageopacity="0.0"
     inkscape:pagecheckerboard="0"
     inkscape:deskcolor="#d1d1d1"
     inkscape:zoom="0.96679688"
     inkscape:cx="288.06465"
     inkscape:cy="256"
     inkscape:window-width="1366"
     inkscape:window-height="697"
     inkscape:window-x="-8"
     inkscape:window-y="-8"
     inkscape:window-maximized="1"
     inkscape:current-layer="svg1" />
  <!--! Font Awesome Pro 6.1.1 by @fontawesome - https://fontawesome.com License - https://fontawesome.com/license (Commercial License) Copyright 2022 Fonticons, Inc. -->
  <path
     d="M9.372 86.63C-3.124 74.13-3.124 53.87 9.372 41.37C21.87 28.88 42.13 28.88 54.63 41.37L246.6 233.4C259.1 245.9 259.1 266.1 246.6 278.6L54.63 470.6C42.13 483.1 21.87 483.1 9.372 470.6C-3.124 458.1-3.124 437.9 9.372 425.4L178.7 256L9.372 86.63zM544 416C561.7 416 576 430.3 576 448C576 465.7 561.7 480 544 480H256C238.3 480 224 465.7 224 448C224 430.3 238.3 416 256 416H544z"
     id="path1" />
  <path
     style="fill:#cccccc;stroke-width:1.03434"
     d="M 21.125763,477.35443 C 13.683122,474.40052 7.8949149,469.02708 4.2080643,461.64904 1.5562758,456.34234 1.0360051,454.0918 1.0444478,447.96409 1.0639325,433.82217 -3.5585409,439.12462 92.871397,342.6292 L 179.43594,256.00589 92.463454,168.8595 C -5.4030879,70.797295 0.48211513,77.646305 1.2141741,62.666539 1.6825944,53.08148 4.6824856,46.510855 11.215874,40.759936 20.150343,32.895502 31.952389,30.68062 43.145037,34.767812 c 5.716809,2.087593 10.492587,6.685407 106.094913,102.141408 111.06909,110.8991 105.72571,104.90638 105.72571,118.57361 0,14.65423 7.24365,6.44272 -103.82226,117.69443 -81.806726,81.94358 -100.9361,100.59856 -105.413742,102.79956 -7.493545,3.68347 -17.396967,4.23798 -24.603895,1.37761 z"
     id="path2" />
  <path
     style="fill:#cccccc;stroke-width:1.03434"
     d="m 245.82876,477.62459 c -6.40837,-2.1354 -14.52031,-9.43087 -18.00871,-16.19612 -3.73957,-7.25237 -3.90031,-18.33542 -0.38006,-26.20473 2.82354,-6.31184 9.63192,-12.9818 16.48336,-16.14823 l 4.83625,-2.23511 h 151.53131 151.53131 l 6.51175,3.53084 c 10.75882,5.83369 15.8185,13.84951 16.55231,26.22307 0.44047,7.42707 0.22907,8.53506 -2.80395,14.69597 -3.87582,7.87292 -9.56588,13.13015 -17.3724,16.05094 -5.46729,2.04558 -7.80504,2.076 -154.7164,2.01314 -134.27676,-0.0574 -149.66426,-0.2301 -154.16477,-1.72977 z"
     id="path3" />
</svg>
